<?xml version="1.0" encoding="UTF-8" standalone="no"?>
<!DOCTYPE svg PUBLIC "-//W3C//DTD SVG 1.1//EN" "http://www.w3.org/Graphics/SVG/1.1/DTD/svg11.dtd">
<svg width="100%" height="100%" viewBox="0 0 50 50" version="1.1" xmlns="http://www.w3.org/2000/svg" xmlns:xlink="http://www.w3.org/1999/xlink" xml:space="preserve" xmlns:serif="http://www.serif.com/" style="fill-rule:evenodd;clip-rule:evenodd;stroke-linejoin:round;stroke-miterlimit:2;">
    <g id="Button-Menu" serif:id="Button Menu">
        <g transform="matrix(0.973576,0,0,0.903646,1.30743,1.96692)">
            <path d="M46.021,4.266C47.076,4.266 48.088,4.718 48.835,5.522C49.581,6.326 50,7.416 50,8.553C50,8.553 50,8.553 50,8.553C50,9.69 49.581,10.781 48.835,11.585C48.088,12.389 47.076,12.84 46.021,12.84C36.449,12.84 12.222,12.84 2.65,12.84C1.595,12.84 0.583,12.389 -0.163,11.585C-0.91,10.781 -1.329,9.69 -1.329,8.553C-1.329,8.553 -1.329,8.553 -1.329,8.553C-1.329,7.416 -0.91,6.326 -0.163,5.522C0.583,4.718 1.595,4.266 2.65,4.266C12.222,4.266 36.449,4.266 46.021,4.266Z" style="fill:rgb(46,130,160);"/>
        </g>
        <g transform="matrix(0.973576,0,0,0.903646,1.30743,32.5748)">
            <path d="M46.021,4.266C47.076,4.266 48.088,4.718 48.835,5.522C49.581,6.326 50,7.416 50,8.553C50,8.553 50,8.553 50,8.553C50,9.69 49.581,10.781 48.835,11.585C48.088,12.389 47.076,12.84 46.021,12.84C36.449,12.84 12.222,12.84 2.65,12.84C1.595,12.84 0.583,12.389 -0.163,11.585C-0.91,10.781 -1.329,9.69 -1.329,8.553C-1.329,8.553 -1.329,8.553 -1.329,8.553C-1.329,7.416 -0.91,6.326 -0.163,5.522C0.583,4.718 1.595,4.266 2.65,4.266C12.222,4.266 36.449,4.266 46.021,4.266Z" style="fill:rgb(46,130,160);"/>
        </g>
        <g transform="matrix(0.76619,0,0,0.903646,1.03186,17.2709)">
            <path d="M44.944,4.266C46.285,4.266 47.571,4.718 48.519,5.522C49.467,6.326 50,7.416 50,8.553C50,8.553 50,8.553 50,8.553C50,9.69 49.467,10.781 48.519,11.585C47.571,12.389 46.285,12.84 44.944,12.84C35.119,12.84 13.553,12.84 3.727,12.84C2.386,12.84 1.1,12.389 0.152,11.585C-0.796,10.781 -1.329,9.69 -1.329,8.553C-1.329,8.553 -1.329,8.553 -1.329,8.553C-1.329,7.416 -0.796,6.326 0.152,5.522C1.1,4.718 2.386,4.266 3.727,4.266C13.553,4.266 35.119,4.266 44.944,4.266Z" style="fill:rgb(46,130,160);"/>
        </g>
    </g>
</svg>
