<?xml version="1.0" encoding="UTF-8" standalone="no"?>
<!DOCTYPE svg PUBLIC "-//W3C//DTD SVG 1.1//EN" "http://www.w3.org/Graphics/SVG/1.1/DTD/svg11.dtd">
<svg width="100%" height="100%" viewBox="0 0 600 600" version="1.1" xmlns="http://www.w3.org/2000/svg" xmlns:xlink="http://www.w3.org/1999/xlink" xml:space="preserve" xmlns:serif="http://www.serif.com/" style="fill-rule:evenodd;clip-rule:evenodd;stroke-linejoin:round;stroke-miterlimit:2;">
    <g id="FINAL" transform="matrix(0.985413,0,0,0.985413,-2192.59,-838.3)">
        <path d="M2529.49,850.709C2697.51,850.709 2833.93,987.124 2833.93,1155.15C2833.93,1323.17 2697.51,1459.59 2529.49,1459.59C2361.46,1459.59 2225.05,1323.17 2225.05,1155.15C2225.05,987.124 2361.46,850.709 2529.49,850.709ZM2499.75,1150.97L2499.75,1116.51L2371.9,1075.43L2371.9,1109.88L2499.75,1150.97ZM2554.93,1353.64L2554.93,997.441L2700.37,1044.18L2700.37,1177.89L2567.93,1135.33L2567.93,1169.79L2741.78,1225.66L2741.77,1023.04L2513.57,949.692L2513.52,1305.87L2327.22,1246L2327.18,1280.45L2554.93,1353.64Z" style="fill:url(#_Linear1);"/>
    </g>
    <defs>
        <linearGradient id="_Linear1" x1="0" y1="0" x2="1" y2="0" gradientUnits="userSpaceOnUse" gradientTransform="matrix(99.7879,337.161,-337.161,99.7879,2529.49,1091.89)"><stop offset="0" style="stop-color:rgb(46,130,160);stop-opacity:1"/><stop offset="1" style="stop-color:rgb(11,79,103);stop-opacity:1"/></linearGradient>
    </defs>
</svg>
