<?xml version="1.0" encoding="UTF-8" standalone="no"?>
<!DOCTYPE svg PUBLIC "-//W3C//DTD SVG 1.1//EN" "http://www.w3.org/Graphics/SVG/1.1/DTD/svg11.dtd">
<svg width="100%" height="100%" viewBox="0 0 50 50" version="1.1" xmlns="http://www.w3.org/2000/svg" xmlns:xlink="http://www.w3.org/1999/xlink" xml:space="preserve" xmlns:serif="http://www.serif.com/" style="fill-rule:evenodd;clip-rule:evenodd;stroke-linejoin:round;stroke-miterlimit:2;">
    <g id="InDesign">
        <g transform="matrix(0.02,0,0,0.0205128,0,-0.00512821)">
            <path d="M442.708,0.25L2057.29,0.25C2302.08,0.25 2500,198.167 2500,442.958L2500,1995.04C2500,2239.83 2302.08,2437.75 2057.29,2437.75L442.708,2437.75C197.917,2437.75 0,2239.83 0,1995.04L0,442.958C0,198.167 197.917,0.25 442.708,0.25Z" style="fill:rgb(73,2,31);fill-rule:nonzero;"/>
        </g>
        <g transform="matrix(0.02,0,0,0.0205128,0,-0.00512821)">
            <path d="M908.333,637.75L908.333,1710.67C908.333,1722.12 903.125,1727.33 893.75,1727.33L689.583,1727.33C680.208,1727.33 676.042,1722.12 676.042,1710.67L676.042,637.75C676.042,628.375 681.25,624.208 690.625,624.208L893.75,624.208C900,623.167 906.25,627.333 907.292,634.625C908.333,635.667 908.333,636.708 908.333,637.75ZM1510.42,1739.83C1433.33,1740.88 1356.25,1725.25 1286.46,1692.96C1220.83,1662.75 1166.67,1612.75 1129.17,1551.29C1090.62,1487.75 1071.88,1408.58 1071.88,1313.79C1070.83,1236.71 1090.62,1160.67 1129.17,1094C1168.75,1026.29 1226.04,970.042 1294.79,932.542C1367.71,891.917 1455.21,872.125 1558.33,872.125C1563.54,872.125 1570.83,872.125 1580.21,873.167C1589.58,874.208 1600,874.208 1612.5,875.25L1612.5,546.083C1612.5,538.792 1615.62,534.625 1622.92,534.625L1834.38,534.625C1839.58,533.583 1843.75,537.75 1844.79,541.917L1844.79,1535.67C1844.79,1554.42 1845.83,1575.25 1846.88,1598.17C1848.96,1620.04 1850,1640.88 1851.04,1658.58C1851.04,1665.88 1847.92,1672.12 1840.62,1675.25C1786.46,1698.17 1729.17,1714.83 1670.83,1725.25C1618.75,1734.62 1564.58,1739.83 1510.42,1739.83ZM1612.5,1531.5L1612.5,1073.17C1603.12,1071.08 1593.75,1069 1584.38,1067.96C1572.92,1066.92 1561.46,1065.88 1550,1065.88C1509.38,1065.88 1468.75,1074.21 1432.29,1092.96C1396.88,1110.67 1366.67,1136.71 1343.75,1170.04C1320.83,1203.38 1309.38,1248.17 1309.38,1302.33C1308.33,1338.79 1314.58,1375.25 1327.08,1409.62C1337.5,1437.75 1353.12,1462.75 1373.96,1483.58C1393.75,1502.33 1417.71,1516.92 1444.79,1525.25C1472.92,1534.62 1502.08,1538.79 1531.25,1538.79C1546.88,1538.79 1561.46,1537.75 1575,1536.71C1588.54,1537.75 1601.04,1535.67 1612.5,1531.5Z" style="fill:rgb(255,51,102);fill-rule:nonzero;"/>
        </g>
    </g>
</svg>
