<?xml version="1.0" encoding="UTF-8" standalone="no"?>
<!DOCTYPE svg PUBLIC "-//W3C//DTD SVG 1.1//EN" "http://www.w3.org/Graphics/SVG/1.1/DTD/svg11.dtd">
<svg width="100%" height="100%" viewBox="0 0 50 50" version="1.1" xmlns="http://www.w3.org/2000/svg" xmlns:xlink="http://www.w3.org/1999/xlink" xml:space="preserve" xmlns:serif="http://www.serif.com/" style="fill-rule:evenodd;clip-rule:evenodd;stroke-linejoin:round;stroke-miterlimit:2;">
    <g id="Navisworks">
        <g transform="matrix(0.233547,0,0,0.256102,-64.7314,-73.3387)">
            <path d="M279.65,305.62C290.37,299.27 300.96,292.68 311.72,286.42C311.82,339.63 311.72,392.84 311.72,446.06C306.46,449.26 301.16,452.39 295.91,455.61C289.57,459.37 283.31,463.29 276.91,466.97L276.91,307.69C277.693,306.842 278.621,306.141 279.65,305.62Z" style="fill:rgb(103,154,231);fill-rule:nonzero;"/>
        </g>
        <g transform="matrix(0.233547,0,0,0.256102,-64.7314,-73.3387)">
            <path d="M311.72,286.42C362.313,286.373 412.91,286.373 463.51,286.42C469.51,286.12 475.26,291.42 475.23,297.42L475.23,446.03L311.78,446.03C311.72,392.84 311.82,339.63 311.72,286.42ZM361.58,410.64C369.02,410.71 376.47,410.64 383.92,410.64L383.92,378.74C387.05,378.74 390.18,378.74 393.31,378.69C396.65,385.06 399.71,391.59 402.95,398.02C405.39,403.6 408.95,409.43 415.1,411.44C420.529,413.148 426.393,412.875 431.64,410.67L431.64,397.36C429.81,397.13 427.83,397.16 426.23,396.11C424.925,395.205 423.889,393.965 423.23,392.52C419.97,386.34 416.697,380.17 413.41,374.01C418.41,371.33 423.22,367.57 425.61,362.24C428.02,357.24 427.32,351.47 427.38,346.06C427.439,340.042 424.953,334.271 420.54,330.18C414.26,324.49 405.54,322.37 397.29,322.09L361.64,322.09C361.55,351.6 361.62,381.13 361.58,410.64Z" style="fill:rgb(24,107,255);fill-rule:nonzero;"/>
        </g>
        <g transform="matrix(0.233547,0,0,0.256102,-0.0459872,0.00371949)">
            <rect x="73.081" y="28.77" width="95.088" height="107.606" style="fill:rgb(24,107,255);"/>
        </g>
        <g transform="matrix(0.233547,0,0,0.256102,-64.7314,-73.3387)">
            <path d="M383.92,337.44C388.37,337.61 392.92,337.05 397.28,337.8C400.94,338.53 404.28,341.33 404.84,345.13C405.092,348.28 405.152,351.443 405.02,354.6C404.927,358.525 402.384,361.997 398.67,363.27C393.92,364.82 388.84,363.94 383.93,364.18C383.917,355.273 383.913,346.36 383.92,337.44Z" style="fill:rgb(24,107,255);fill-rule:nonzero;"/>
        </g>
        <g transform="matrix(0.233547,0,0,0.256102,-64.7314,-73.3387)">
            <path d="M475.23,322.26L491,322.26L491,481.62L306.66,481.62C302.991,481.24 299.682,479.225 297.66,476.14C296.392,474.16 295.786,471.827 295.93,469.48L295.93,455.61C301.18,452.4 306.48,449.26 311.74,446.06L475.19,446.06C475.243,404.793 475.257,363.527 475.23,322.26Z" style="fill:rgb(12,61,145);fill-rule:nonzero;"/>
        </g>
        <g transform="matrix(0.213831,0,0,0.255302,1.62215,0.104616)">
            <path d="M106.947,70.505L106.947,126.168L84.61,126.168L84.61,35.71L106.947,35.71L106.947,35.716L106.957,35.71L138.972,91.266L138.972,35.427L161.309,35.427L161.309,126.055L138.972,126.055L138.972,126.047L138.958,126.055L106.947,70.505Z" style="fill:white;"/>
        </g>
    </g>
</svg>
