<?xml version="1.0" encoding="UTF-8" standalone="no"?>
<!DOCTYPE svg PUBLIC "-//W3C//DTD SVG 1.1//EN" "http://www.w3.org/Graphics/SVG/1.1/DTD/svg11.dtd">
<svg width="100%" height="100%" viewBox="0 0 50 50" version="1.1" xmlns="http://www.w3.org/2000/svg" xmlns:xlink="http://www.w3.org/1999/xlink" xml:space="preserve" xmlns:serif="http://www.serif.com/" style="fill-rule:evenodd;clip-rule:evenodd;stroke-linecap:round;stroke-linejoin:round;stroke-miterlimit:1.5;">
    <g id="ArchiCad" transform="matrix(0.384615,0,0,0.384615,-3.4611,-3.84615)">
        <g transform="matrix(1.07598,0,0,1.07598,-5.57767,-8.03746)">
            <path d="M136.228,46.969L136.228,107.379C136.228,124.049 122.694,137.584 106.023,137.584L43.752,137.584C27.082,137.584 13.547,124.049 13.547,107.379L13.547,46.969C13.547,30.298 27.082,16.764 43.752,16.764L106.023,16.764C122.694,16.764 136.228,30.298 136.228,46.969Z" style="fill:url(#_Linear1);"/>
        </g>
        <g transform="matrix(1.18882,0,0,1.18882,-20.8163,-15.4467)">
            <circle cx="117.368" cy="88.93" r="7.122" style="fill:white;"/>
        </g>
        <path d="M117.368,68.907C117.368,68.907 116.18,32.715 89.002,33.727C61.824,34.739 30.6,91.6 17.115,122.701" style="fill:none;stroke:white;stroke-width:14.3px;"/>
    </g>
    <defs>
        <linearGradient id="_Linear1" x1="0" y1="0" x2="1" y2="0" gradientUnits="userSpaceOnUse" gradientTransform="matrix(-94.5248,-110.008,110.008,-94.5248,120.883,133.275)"><stop offset="0" style="stop-color:rgb(16,48,127);stop-opacity:1"/><stop offset="0.47" style="stop-color:rgb(48,84,172);stop-opacity:1"/><stop offset="1" style="stop-color:rgb(57,94,185);stop-opacity:1"/></linearGradient>
    </defs>
</svg>
