<?xml version="1.0" encoding="UTF-8" standalone="no"?>
<!DOCTYPE svg PUBLIC "-//W3C//DTD SVG 1.1//EN" "http://www.w3.org/Graphics/SVG/1.1/DTD/svg11.dtd">
<svg width="100%" height="100%" viewBox="0 0 50 50" version="1.1" xmlns="http://www.w3.org/2000/svg" xmlns:xlink="http://www.w3.org/1999/xlink" xml:space="preserve" xmlns:serif="http://www.serif.com/" style="fill-rule:evenodd;clip-rule:evenodd;stroke-linejoin:round;stroke-miterlimit:2;">
    <g id="BIMCollab" transform="matrix(0.154452,0,0,0.155206,-2.26029,-0.91073)">
        <g transform="matrix(1.04111,0,0,1.04111,-9.96286,-4.11746)">
            <path d="M207.044,187.867L193.44,163.88L260.159,163.88C299.255,163.88 330.996,195.621 330.996,234.717C330.996,273.813 299.255,305.555 260.159,305.555C221.062,305.555 189.321,273.813 189.321,234.717C189.321,226.758 190.637,219.104 193.062,211.961L219.204,211.961C215.449,218.7 213.308,226.461 213.308,234.717C213.308,260.575 234.301,281.568 260.159,281.568C286.016,281.568 307.009,260.575 307.009,234.717C307.009,208.86 286.016,187.867 260.159,187.867L207.044,187.867Z" style="fill:rgb(235,206,142);"/>
        </g>
        <g transform="matrix(-0.520557,0.901632,-0.901632,-0.520557,439.158,127.487)">
            <path d="M207.044,187.867L193.44,163.88L260.159,163.88C299.255,163.88 330.996,195.621 330.996,234.717C330.996,273.813 299.255,305.555 260.159,305.555C221.062,305.555 189.321,273.813 189.321,234.717C189.321,226.758 190.637,219.104 193.062,211.961L219.204,211.961C215.449,218.7 213.308,226.461 213.308,234.717C213.308,260.575 234.301,281.568 260.159,281.568C286.016,281.568 307.009,260.575 307.009,234.717C307.009,208.86 286.016,187.867 260.159,187.867L207.044,187.867Z" style="fill:rgb(31,89,120);"/>
        </g>
        <g transform="matrix(-0.520557,0.901632,-0.901632,-0.520557,439.158,127.487)">
            <path d="M207.044,187.867L193.44,163.88L260.159,163.88C299.255,163.88 330.996,195.621 330.996,234.717C330.996,273.813 299.255,305.555 260.159,305.555C221.062,305.555 189.321,273.813 189.321,234.717C189.321,226.758 190.637,219.104 193.062,211.961L219.204,211.961C215.449,218.7 213.308,226.461 213.308,234.717C213.308,260.575 234.301,281.568 260.159,281.568C286.016,281.568 307.009,260.575 307.009,234.717C307.009,208.86 286.016,187.867 260.159,187.867L207.044,187.867Z" style="fill:rgb(31,89,120);"/>
        </g>
        <g transform="matrix(-0.520557,-0.901632,0.901632,-0.520557,100.861,450.39)">
            <path d="M207.044,187.867L193.44,163.88L260.159,163.88C299.255,163.88 330.996,195.621 330.996,234.717C330.996,273.813 299.255,305.555 260.159,305.555C221.062,305.555 189.321,273.813 189.321,234.717C189.321,226.758 190.637,219.104 193.062,211.961L219.204,211.961C215.449,218.7 213.308,226.461 213.308,234.717C213.308,260.575 234.301,281.568 260.159,281.568C286.016,281.568 307.009,260.575 307.009,234.717C307.009,208.86 286.016,187.867 260.159,187.867L207.044,187.867Z" style="fill:rgb(34,179,232);"/>
        </g>
    </g>
</svg>
