<?xml version="1.0" encoding="UTF-8" standalone="no"?>
<!DOCTYPE svg PUBLIC "-//W3C//DTD SVG 1.1//EN" "http://www.w3.org/Graphics/SVG/1.1/DTD/svg11.dtd">
<svg width="100%" height="100%" viewBox="0 0 50 50" version="1.1" xmlns="http://www.w3.org/2000/svg" xmlns:xlink="http://www.w3.org/1999/xlink" xml:space="preserve" xmlns:serif="http://www.serif.com/" style="fill-rule:evenodd;clip-rule:evenodd;stroke-linejoin:round;stroke-miterlimit:2;">
    <g id="Revizto" transform="matrix(0.416667,0,0,0.416667,0,0)">
        <path d="M120,15.528L120,104.472C120,113.042 113.042,120 104.472,120L15.528,120C6.958,120 0,113.042 0,104.472L0,15.528C0,6.958 6.958,0 15.528,0L104.472,0C113.042,0 120,6.958 120,15.528Z" style="fill:rgb(236,38,5);"/>
        <g transform="matrix(1,0,0,1,3.61335,1.36993)">
            <path d="M29.352,62.635C26.627,64.828 23.164,66.14 19.397,66.14C10.622,66.14 3.497,59.015 3.497,50.24C3.497,41.464 10.622,34.34 19.397,34.34C26.72,34.34 32.894,39.301 34.737,46.042C36.136,47.838 37.619,48.351 39.678,48.642C40.929,48.818 42.386,48.618 43.688,48.313C47.028,45.33 51.434,43.516 56.26,43.516C61.045,43.516 65.417,45.299 68.747,48.238C70.123,48.583 71.716,48.832 73.067,48.642C75.253,48.333 76.788,47.774 78.265,45.697C80.221,39.132 86.308,34.34 93.506,34.34C102.281,34.34 109.406,41.464 109.406,50.24C109.406,59.015 102.281,66.14 93.506,66.14C89.768,66.14 86.33,64.848 83.614,62.686C82.202,62.353 80.606,62.176 79,62.4C76.847,62.7 75.677,63.961 74.909,65.388C74.163,66.66 73.817,67.966 73.85,69.281C73.832,71.111 73.824,73.533 75.085,75.431C76.183,77.085 76.152,77.108 76.774,77.468C77.566,77.926 79.288,78.404 79.938,78.462C82.557,78.695 83.923,78.997 84.234,79.095C90.502,81.079 94.9,87.171 94.9,94.113C94.9,102.888 87.775,110.013 79,110.013C70.224,110.013 63.099,102.888 63.099,94.113C63.099,91.739 63.391,89.839 64.325,87.816C64.572,86.437 64.273,85.324 63.964,84.698C62.886,82.513 61.673,81.847 58.642,81.136C57.905,80.947 55.384,80.999 54.18,81.342C52.513,81.818 51.313,82.517 49.749,83.88C48.178,85.249 47.846,86.863 47.942,88.416C48.622,90.185 48.994,92.106 48.994,94.113C48.994,102.888 41.869,110.013 33.094,110.013C24.318,110.013 17.194,102.888 17.194,94.113C17.194,86.234 22.936,79.686 30.46,78.43C31.628,78.192 35.273,77.338 37.262,75.6C38.582,74.446 39.473,73.383 39.833,71.717C40.17,68.991 39.155,66.773 37.536,64.875C36.768,63.668 35.636,62.664 33.745,62.4C32.223,62.188 30.708,62.336 29.352,62.635Z" style="fill:rgb(235,235,235);"/>
        </g>
        <g transform="matrix(1,0,0,1,40.4757,-26.0511)">
            <circle cx="19.397" cy="50.24" r="15.9" style="fill:rgb(235,235,235);"/>
        </g>
    </g>
</svg>
