<?xml version="1.0" encoding="UTF-8" standalone="no"?>
<!DOCTYPE svg PUBLIC "-//W3C//DTD SVG 1.1//EN" "http://www.w3.org/Graphics/SVG/1.1/DTD/svg11.dtd">
<svg width="100%" height="100%" viewBox="0 0 50 50" version="1.1" xmlns="http://www.w3.org/2000/svg" xmlns:xlink="http://www.w3.org/1999/xlink" xml:space="preserve" xmlns:serif="http://www.serif.com/" style="fill-rule:evenodd;clip-rule:evenodd;stroke-linejoin:round;stroke-miterlimit:2;">
    <g id="Solibri" transform="matrix(0.263158,0,0,0.263158,2.24768e-14,2.66454e-15)">
        <g transform="matrix(1,0,0,1.21784,0,0)">
            <path d="M190,39.003L190,117.01C190,138.537 168.716,156.014 142.5,156.014L47.5,156.014C21.284,156.014 0,138.537 0,117.01L0,39.003C0,17.477 21.284,0 47.5,0L142.5,0C168.716,0 190,17.477 190,39.003Z" style="fill:rgb(255,200,0);"/>
        </g>
        <g transform="matrix(1.2255,0,0,1.09076,-5.94445,-6.83807)">
            <g transform="matrix(133.835,0,0,133.835,121.363,140.729)">
            </g>
            <text x="44.578px" y="140.729px" style="font-family:'DINAlternate-Bold', 'DIN Alternate', sans-serif;font-weight:700;font-size:133.835px;fill:rgb(255,254,254);">S</text>
        </g>
    </g>
</svg>
