<?xml version="1.0" encoding="UTF-8" standalone="no"?>
<!DOCTYPE svg PUBLIC "-//W3C//DTD SVG 1.1//EN" "http://www.w3.org/Graphics/SVG/1.1/DTD/svg11.dtd">
<svg width="100%" height="100%" viewBox="0 0 50 50" version="1.1" xmlns="http://www.w3.org/2000/svg" xmlns:xlink="http://www.w3.org/1999/xlink" xml:space="preserve" xmlns:serif="http://www.serif.com/" style="fill-rule:evenodd;clip-rule:evenodd;stroke-linejoin:round;stroke-miterlimit:2;">
    <g id="Layer_1_38_" transform="matrix(0.0625,0,0,0.0625,0,0.0626844)">
        <g>
            <path d="M635.749,382.154C545.175,382.154 471.493,455.838 471.493,546.402C471.493,636.971 545.177,710.653 635.749,710.653C726.318,710.653 800,636.97 800,546.402C800,455.838 726.316,382.154 635.749,382.154ZM635.749,661.533C572.267,661.533 520.619,609.89 520.619,546.404C520.619,482.922 572.267,431.274 635.749,431.274C699.227,431.274 750.874,482.922 750.874,546.404C750.874,609.89 699.227,661.533 635.749,661.533Z" style="fill:rgb(109,109,109);fill-rule:nonzero;"/>
            <path d="M164.255,382.154C73.682,382.154 0,455.838 0,546.402C0,636.971 73.684,710.653 164.255,710.653C254.821,710.653 328.503,636.97 328.503,546.402C328.505,455.838 254.821,382.154 164.255,382.154ZM164.255,661.533C100.77,661.533 49.126,609.89 49.126,546.404C49.126,482.922 100.77,431.274 164.255,431.274C227.733,431.274 279.381,482.922 279.381,546.404C279.383,609.89 227.735,661.533 164.255,661.533Z" style="fill:rgb(109,109,109);fill-rule:nonzero;"/>
            <path d="M416.499,372.345L370.762,336.857L460.992,290.693L537.105,354.179C542.23,358.457 548.741,361.181 555.926,361.556L628.455,365.37C645.684,366.291 661.253,354.179 664.225,336.76C667.429,318.006 654.813,305.863 636.059,302.661L561.867,291.583C561.867,291.583 507.785,216.985 495.547,204.202C459.01,166.029 437.112,144.577 395.09,165.337L266.85,228.697C229.949,247.265 205.8,296.48 226.564,338.499C236.779,359.173 252.817,369.611 276.244,384.815L350.482,430.097L359.307,571.975C360.564,591.608 376.952,607.179 396.874,607.053C417.526,606.924 434.162,590.07 434.029,569.411L432.964,404.24C432.806,392.11 427.099,379.983 416.499,372.345Z" style="fill:rgb(109,109,109);fill-rule:nonzero;stroke:black;stroke-width:0.6px;"/>
            <g transform="matrix(0.822675,0,0,0.822675,100.76,28.9119)">
                <path d="M527.061,224.234C535.211,229.718 544.442,233.516 554.078,235.398L554.179,235.417C578.051,240.05 603.16,232.362 620.377,215.19C637.84,197.762 645.51,171.987 640.417,147.844C635.461,124.324 618.836,104.19 596.634,94.949C573.914,85.503 547.423,88.122 527.021,101.876C506.615,115.627 494.25,139.198 494.476,163.804C494.707,187.848 507.124,210.815 527.061,224.234Z" style="fill:rgb(109,109,109);fill-rule:nonzero;"/>
            </g>
        </g>
    </g>
</svg>
