<?xml version="1.0" encoding="UTF-8" standalone="no"?>
<!DOCTYPE svg PUBLIC "-//W3C//DTD SVG 1.1//EN" "http://www.w3.org/Graphics/SVG/1.1/DTD/svg11.dtd">
<svg width="100%" height="100%" viewBox="0 0 50 50" version="1.1" xmlns="http://www.w3.org/2000/svg" xmlns:xlink="http://www.w3.org/1999/xlink" xml:space="preserve" xmlns:serif="http://www.serif.com/" style="fill-rule:evenodd;clip-rule:evenodd;stroke-linejoin:round;stroke-miterlimit:2;">
    <g transform="matrix(0.0135298,0,0,0.0135298,9.1942,27.3886)">
        <g transform="matrix(4.16667,0,0,4.16667,-498.443,-1843.21)">
            <path d="M297.358,712.591L224.548,609.044L225.492,600.734C172.927,585.459 188.678,590.038 161.247,582.067L157.614,614.041C156.703,622.058 158.763,630.13 163.403,636.727L243.417,750.517C253.894,765.416 274.458,768.997 289.352,758.523C304.247,748.052 307.831,727.484 297.358,712.591Z" style="fill:rgb(109,109,109);fill-rule:nonzero;"/>
        </g>
        <g transform="matrix(4.16667,0,0,4.16667,-498.443,-1843.21)">
            <path d="M84.406,559.741L73.598,606.128C73.028,608.573 72.741,611.077 72.739,613.588L72.644,767.006C72.631,785.216 87.384,799.986 105.594,799.998L105.614,799.998C123.813,799.997 138.573,785.248 138.583,767.048L138.677,617.409L147.819,578.167L84.406,559.741Z" style="fill:rgb(109,109,109);fill-rule:nonzero;"/>
        </g>
        <g transform="matrix(4.16667,0,0,4.16667,-498.443,-1843.21)">
            <circle cx="569.13" cy="127.089" r="59.842" style="fill:rgb(109,109,109);"/>
        </g>
        <g transform="matrix(4.16434,0.139152,-0.139152,4.16434,-523.186,-1877.29)">
            <path d="M222.125,150.672C213.234,181.27 231.192,212.922 261.358,221.358L304.765,184.458L309.198,114.098C278.288,103.664 231.12,119.719 222.125,150.672Z" style="fill:rgb(109,109,109);fill-rule:nonzero;"/>
        </g>
        <g transform="matrix(4.16667,0,0,4.16667,-498.443,-1843.21)">
            <path d="M740.466,258.689L637.606,214.044C633.978,212.47 630.066,211.656 626.111,211.656L524.781,211.656C517.445,202.263 375.438,20.448 368.122,11.086C358.334,-1.445 340.139,-3.702 327.591,6.105C316.681,14.627 310.988,31.756 324.284,48.781C323.594,52.1 324.466,41.559 314.342,187.894L238.362,250.725L253.795,237.963C252.79,237.512 248.775,236.172 244.194,234.705C236.714,232.309 216.102,225.897 155.039,206.778L98.297,118.252C89.214,104.081 70.364,99.955 56.195,109.042C42.025,118.125 37.902,136.975 46.984,151.144L109.708,248.994C113.57,255.02 119.428,259.492 126.259,261.631C149.959,269.052 141.236,266.32 168.827,274.959L53.947,504.653C49.647,513.25 53.619,523.556 62.147,526.036C103.3,537.994 209.486,568.85 250.667,580.816C259.161,583.283 268.072,576.728 269.048,567.158L301.945,277.237L277.209,297.692L363.266,226.528C369.7,221.206 373.67,213.478 374.247,205.145L380.119,120.263C497.145,270.089 488.677,259.784 492.344,262.808L492.358,765.342C492.358,784.481 507.872,799.992 527.008,799.992C546.144,799.992 561.658,784.481 561.658,765.342L561.658,488.38L576.625,488.38C576.63,493.828 572.581,473.184 636.672,772.595C640.688,791.359 659.156,803.228 677.808,799.225C696.52,795.22 708.442,776.803 704.438,758.091L645.292,481.775L645.292,401.381C646.428,400.602 647.534,399.759 648.575,398.798L748.57,306.384C763.866,292.245 759.588,266.989 740.466,258.689ZM645.291,323.195L645.291,280.336L676.845,294.031L645.291,323.195Z" style="fill:rgb(109,109,109);fill-rule:nonzero;"/>
        </g>
    </g>
</svg>
