<?xml version="1.0" encoding="UTF-8" standalone="no"?>
<!DOCTYPE svg PUBLIC "-//W3C//DTD SVG 1.1//EN" "http://www.w3.org/Graphics/SVG/1.1/DTD/svg11.dtd">
<svg width="100%" height="100%" viewBox="0 0 50 50" version="1.1" xmlns="http://www.w3.org/2000/svg" xmlns:xlink="http://www.w3.org/1999/xlink" xml:space="preserve" xmlns:serif="http://www.serif.com/" style="fill-rule:evenodd;clip-rule:evenodd;stroke-linecap:round;stroke-linejoin:round;">
    <g transform="matrix(0.0705965,0,0,0.067441,-3.23894,-1.97639)">
        <path d="M200.005,366.667L333.337,366.667M266.671,300L266.671,433.333M500.003,400L500.337,400M600.003,333.333L600.337,333.333M348.303,166.667L451.707,166.667C539.203,166.667 582.95,166.667 617.29,183.248C647.523,197.847 672.643,221.236 689.36,250.353C708.343,283.423 711.46,327.06 717.697,414.333L725.897,529.15C729.917,585.447 685.33,633.333 628.89,633.333C600.027,633.333 572.653,620.513 554.177,598.34L541.67,583.333C530.233,569.607 524.513,562.743 518,557.197C504.35,545.573 487.82,537.83 470.15,534.787C461.72,533.333 452.787,533.333 434.92,533.333L365.09,533.333C347.223,533.333 338.29,533.333 329.859,534.787C312.188,537.83 295.66,545.573 282.008,557.197C275.496,562.743 269.776,569.607 258.338,583.333L245.832,598.34C227.355,620.513 199.983,633.333 171.12,633.333C114.679,633.333 70.092,585.447 74.113,529.15L82.314,414.333C88.548,327.06 91.665,283.423 110.65,250.353C127.366,221.236 152.486,197.847 182.72,183.248C217.059,166.667 260.807,166.667 348.303,166.667Z" style="fill:none;fill-rule:nonzero;stroke:rgb(109,109,109);stroke-width:46.92px;"/>
    </g>
</svg>
