<?xml version="1.0" encoding="UTF-8" standalone="no"?>
<!DOCTYPE svg PUBLIC "-//W3C//DTD SVG 1.1//EN" "http://www.w3.org/Graphics/SVG/1.1/DTD/svg11.dtd">
<svg width="100%" height="100%" viewBox="0 0 50 50" version="1.1" xmlns="http://www.w3.org/2000/svg" xmlns:xlink="http://www.w3.org/1999/xlink" xml:space="preserve" xmlns:serif="http://www.serif.com/" style="fill-rule:evenodd;clip-rule:evenodd;stroke-linecap:round;stroke-linejoin:round;">
    <g transform="matrix(0.471286,0,0,0.439714,-55.8306,-1444.32)">
        <g transform="matrix(0.165465,0,0,0.176821,104.971,3271.88)">
            <path d="M400,533.333C455.23,533.333 500,488.563 500,433.333C500,378.103 455.23,333.333 400,333.333C344.77,333.333 300,378.103 300,433.333C300,488.563 344.77,533.333 400,533.333Z" style="fill:none;fill-rule:nonzero;stroke:rgb(109,109,109);stroke-width:31.49px;"/>
        </g>
        <g transform="matrix(0.176821,0,0,0.176821,100.428,3271.88)">
            <path d="M100,560L100,306.667C100,269.33 100,250.661 107.266,236.401C113.658,223.856 123.856,213.658 136.401,207.266C150.661,200 169.33,200 206.667,200L241.821,200C245.919,200 247.968,200 249.859,199.783C259.722,198.654 268.568,193.186 273.99,184.87C275.029,183.276 275.945,181.443 277.778,177.778C281.443,170.447 283.276,166.782 285.354,163.594C296.197,146.961 313.889,136.026 333.617,133.766C337.397,133.333 341.493,133.333 349.69,133.333L450.31,133.333C458.507,133.333 462.603,133.333 466.383,133.766C486.11,136.026 503.803,146.961 514.647,163.594C516.723,166.782 518.557,170.448 522.223,177.778C524.053,181.443 524.97,183.276 526.01,184.87C531.433,193.186 540.277,198.654 550.14,199.783C552.033,200 554.08,200 558.18,200L593.333,200C630.67,200 649.34,200 663.6,207.266C676.143,213.658 686.343,223.856 692.733,236.401C700,250.661 700,269.33 700,306.667L700,560C700,597.337 700,616.007 692.733,630.267C686.343,642.81 676.143,653.01 663.6,659.4C649.34,666.667 630.67,666.667 593.333,666.667L206.667,666.667C169.33,666.667 150.661,666.667 136.401,659.4C123.856,653.01 113.658,642.81 107.266,630.267C100,616.007 100,597.337 100,560ZM130.453,560C130.453,577.454 130.396,590.546 131.245,600.94C131.71,606.63 132.133,610.972 133.993,614.622C137.371,621.251 142.845,626.544 149.475,629.922C161.055,635.822 176.351,634.027 206.667,634.027L593.333,634.027C623.649,634.027 638.946,635.822 650.526,629.921C657.154,626.545 662.629,621.252 666.006,614.622C667.866,610.973 668.29,606.63 668.755,600.94C669.604,590.546 669.547,577.454 669.547,560L669.547,306.667C669.547,289.213 669.604,276.121 668.755,265.728C668.29,260.037 667.866,255.694 666.005,252.042C662.628,245.414 657.153,240.122 650.525,236.744C638.946,230.844 623.649,232.639 593.333,232.639L558.18,232.639C552.43,232.639 549.562,232.542 546.905,232.238C528.108,230.085 511.388,219.42 501.052,203.572C499.52,201.224 498.072,198.583 495.378,193.188C492.576,187.586 491.269,184.722 489.68,182.284C483.748,173.187 473.937,167.457 463.147,166.221C460.129,165.875 456.855,165.973 450.31,165.973L349.69,165.973C343.145,165.973 339.871,165.875 336.853,166.221C326.061,167.457 316.249,173.189 310.317,182.288C308.728,184.727 307.422,187.589 304.619,193.195C301.925,198.583 300.481,201.219 298.953,203.563C288.621,219.414 271.895,230.084 253.096,232.238C250.444,232.542 247.571,232.639 241.821,232.639L206.667,232.639C176.35,232.639 161.055,230.844 149.475,236.745C142.846,240.122 137.371,245.415 133.993,252.045C132.134,255.695 131.71,260.037 131.245,265.728C130.396,276.121 130.453,289.213 130.453,306.667L130.453,560Z" style="fill:rgb(109,109,109);"/>
        </g>
    </g>
</svg>
