<?xml version="1.0" encoding="UTF-8" standalone="no"?>
<!DOCTYPE svg PUBLIC "-//W3C//DTD SVG 1.1//EN" "http://www.w3.org/Graphics/SVG/1.1/DTD/svg11.dtd">
<svg width="100%" height="100%" viewBox="0 0 50 50" version="1.1" xmlns="http://www.w3.org/2000/svg" xmlns:xlink="http://www.w3.org/1999/xlink" xml:space="preserve" xmlns:serif="http://www.serif.com/" style="fill-rule:evenodd;clip-rule:evenodd;stroke-linejoin:round;stroke-miterlimit:2;">
    <g id="NodeJS" transform="matrix(0.021855,0,0,0.021855,2.82629,-2.40069)">
        <path d="M1014.58,2397.65C983.719,2397.66 953.392,2389.54 926.662,2374.12L646.89,2208.49C605.136,2185.12 625.482,2176.87 639.291,2172.05C683.698,2158.33 726.216,2139.12 765.858,2114.85C772.597,2111.73 780.492,2112.32 786.694,2116.4L1001.67,2244.12C1009.79,2248.41 1019.53,2248.41 1027.65,2244.12L1865.99,1760.23C1873.96,1755.46 1878.85,1746.81 1878.82,1737.52L1878.82,769.592C1878.82,760.155 1873.89,751.373 1865.83,746.469L1027.49,262.996C1019.46,258.473 1009.62,258.473 1001.59,262.996L163.744,746.632C155.624,751.434 150.594,760.16 150.507,769.592L150.507,1737.11C150.53,1746.39 155.568,1754.96 163.662,1759.5L393.591,1892.19C518.198,1954.46 594.514,1881.08 594.514,1807.38L594.514,852.119C594.514,838.671 605.58,827.606 619.027,827.606L725.249,827.606C738.696,827.606 749.762,838.671 749.762,852.119L749.762,1807.46C749.762,1973.74 659.228,2068.93 501.529,2068.93C433.503,2070.12 366.524,2051.92 308.45,2016.47L88.081,1890.07C33.705,1858.4 0.155,1800.03 0.162,1737.11L0.162,769.592C0,706.565 33.581,648.047 88.081,616.388L926.498,132.343C981.325,102.347 1047.84,102.347 1102.66,132.343L1941,616.388C1995.37,647.991 2028.95,706.297 2029,769.184L2029,1737.11C2028.91,1800.03 1995.35,1858.36 1941,1890.07L1102.66,2374.12C1075.88,2389.57 1045.5,2397.68 1014.58,2397.65Z" style="fill:rgb(0,212,134);fill-rule:nonzero;"/>
        <path d="M855.575,1413.3C855.575,1399.85 866.64,1388.78 880.088,1388.78L988.516,1388.78C1000.43,1388.82 1010.67,1397.54 1012.62,1409.29C1028.96,1519.68 1077.99,1575.33 1299.66,1575.33C1476.24,1575.33 1551.49,1535.37 1551.49,1441.65C1551.49,1387.64 1530.17,1347.52 1255.7,1320.64C1026.27,1297.92 884.418,1247.1 884.418,1063.75C884.418,894.607 1027,793.697 1266,793.697C1534.58,793.697 1667.52,886.927 1684.35,1086.95C1684.4,1087.58 1684.42,1088.2 1684.42,1088.83C1684.42,1102.15 1673.57,1113.16 1660.25,1113.34L1551.08,1113.34C1539.85,1113.19 1530.1,1105.33 1527.55,1094.39C1501.49,978.278 1437.67,941.182 1266.08,941.182C1073.25,941.182 1050.86,1008.35 1050.86,1058.68C1050.86,1119.63 1077.33,1137.45 1337.66,1171.85C1595.29,1205.92 1717.69,1254.13 1717.69,1435.19C1717.69,1617.9 1565.38,1722.49 1299.75,1722.49C932.463,1722.98 855.575,1554.57 855.575,1413.3Z" style="fill:rgb(0,212,134);fill-rule:nonzero;"/>
    </g>
</svg>
