<?xml version="1.0" encoding="UTF-8" standalone="no"?>
<!DOCTYPE svg PUBLIC "-//W3C//DTD SVG 1.1//EN" "http://www.w3.org/Graphics/SVG/1.1/DTD/svg11.dtd">
<svg width="100%" height="100%" viewBox="0 0 50 50" version="1.1" xmlns="http://www.w3.org/2000/svg" xmlns:xlink="http://www.w3.org/1999/xlink" xml:space="preserve" xmlns:serif="http://www.serif.com/" style="fill-rule:evenodd;clip-rule:evenodd;stroke-linecap:round;stroke-linejoin:round;">
    <g transform="matrix(0.504738,0,0,0.432449,-502.218,-1418.9)">
        <g transform="matrix(0.156556,0,0,0.156556,982.891,3274.96)">
            <path d="M466.667,733.333L466.667,533.333L400,466.667M400,466.667L433.333,266.667M400,466.667L333.333,466.667M433.333,266.667C466.667,305.556 520,366.667 600,366.667M433.333,266.667L427.373,260.708C408.55,241.883 376.34,251.635 371.12,277.741L333.333,466.667M333.333,466.667L266.667,733.333M600,316.667L600,733.333M266.667,233.333L257.359,233.333C243.011,233.333 230.273,242.514 225.736,256.126L183.333,383.333L233.333,400L266.667,233.333ZM483.333,116.667C483.333,135.076 468.41,150 450,150C431.59,150 416.667,135.076 416.667,116.667C416.667,98.257 431.59,83.333 450,83.333C468.41,83.333 483.333,98.257 483.333,116.667Z" style="fill:none;fill-rule:nonzero;stroke:rgb(109,109,109);stroke-width:49.19px;"/>
        </g>
        <g transform="matrix(1,0,0,1,-1.88166,0.603927)">
            <ellipse cx="1055.8" cy="3293.79" rx="4.159" ry="3.987" style="fill:rgb(109,109,109);"/>
        </g>
        <g transform="matrix(1.46979,0.246419,-0.757247,4.51667,1986.05,-11805.2)">
            <ellipse cx="1055.8" cy="3293.79" rx="4.159" ry="3.987" style="fill:rgb(109,109,109);"/>
        </g>
    </g>
</svg>
