<?xml version="1.0" encoding="UTF-8" standalone="no"?>
<!DOCTYPE svg PUBLIC "-//W3C//DTD SVG 1.1//EN" "http://www.w3.org/Graphics/SVG/1.1/DTD/svg11.dtd">
<svg width="100%" height="100%" viewBox="0 0 50 50" version="1.1" xmlns="http://www.w3.org/2000/svg" xmlns:xlink="http://www.w3.org/1999/xlink" xml:space="preserve" xmlns:serif="http://www.serif.com/" style="fill-rule:evenodd;clip-rule:evenodd;stroke-linejoin:round;stroke-miterlimit:2;">
    <g transform="matrix(0.0712223,0,0,0.0712223,-4.36641,-3.90815)">
        <path d="M600,150C557.5,150 525,182.5 525,225L525,280C517.5,277.5 510,275 500,275C480,275 462.5,282.5 450,295C437.5,282.5 420,275 400,275C390,275 382.5,277.5 375,280L375,175C375,132.5 342.5,100 300,100C257.5,100 225,132.5 225,175L225,447.5C212.5,435 195,425 175,425C152.5,425 132.5,432.5 117.5,447.5C90,475 87.5,522.5 115,552.5L195,642.5C240,695 305,725 375,725L467.5,725C582.5,725 677.5,630 677.5,515L677.5,225C675,182.5 642.5,150 600,150ZM625,225L625,515C625,602.5 552.5,675 465,675L372.5,675C317.5,675 267.5,652.5 230,610L150,520C140,510 140,492.5 152.5,482.5C157.5,477.5 165,475 172.5,475C180,475 187.5,480 192.5,485L230,530C237.5,537.5 247.5,540 257.5,537.5C267.5,535 275,525 275,515L275,175C275,160 285,150 300,150C315,150 325,160 325,175L325,375C325,390 335,400 350,400C365,400 375,390 375,375L375,350C375,335 385,325 400,325C415,325 425,335 425,350L425,375C425,390 435,400 450,400C465,400 475,390 475,375L475,350C475,335 485,325 500,325C515,325 525,335 525,350L525,375C525,390 535,400 550,400C565,400 575,390 575,375L575,225C575,210 585,200 600,200C615,200 625,210 625,225Z" style="fill:rgb(109,109,109);fill-rule:nonzero;"/>
    </g>
</svg>
