<?xml version="1.0" encoding="UTF-8" standalone="no"?>
<!DOCTYPE svg PUBLIC "-//W3C//DTD SVG 1.1//EN" "http://www.w3.org/Graphics/SVG/1.1/DTD/svg11.dtd">
<svg width="100%" height="100%" viewBox="0 0 120 120" version="1.1" xmlns="http://www.w3.org/2000/svg" xmlns:xlink="http://www.w3.org/1999/xlink" xml:space="preserve" xmlns:serif="http://www.serif.com/" style="fill-rule:evenodd;clip-rule:evenodd;stroke-linejoin:round;stroke-miterlimit:2;">
    <g transform="matrix(1.13208,0,0,1.13208,-9.0566,-6.79245)">
        <path d="M49.332,110.709C25.686,105.388 8,84.243 8,59C8,29.749 31.749,6 61,6C90.251,6 114,29.749 114,59C114,83.655 97.128,104.401 74.31,110.312C74.533,106.394 74.978,96.726 74.207,92.855C73.229,87.946 70.786,85.983 70.786,85.983C70.786,85.983 84.471,84.019 88.381,78.619C92.291,73.219 94.245,70.765 94.734,61.929C95.223,53.093 89.358,46.711 89.358,46.711C89.358,46.711 91.802,34.439 88.381,32.475C84.959,30.512 77.139,37.875 74.207,37.875C71.274,37.875 69.808,35.911 61.988,35.911C54.168,35.911 50.747,37.875 49.281,37.875C47.814,37.875 37.551,30.021 35.107,32.475C32.663,34.93 34.129,46.711 34.129,46.711C34.129,46.711 28.753,50.638 28.753,61.929C28.753,73.219 31.799,74.692 35.107,78.619C38.415,82.546 54.168,85.983 52.702,85.983C51.236,85.983 50.258,91.382 49.281,92.855C48.303,94.328 46.348,94.328 43.416,94.328C40.483,94.328 39.017,93.346 37.062,91.873C35.107,90.401 32.663,85.492 30.708,84.019C28.753,82.546 23.377,82.055 24.355,84.019C25.332,85.983 27.287,86.964 29.731,89.419C32.175,91.873 32.175,94.819 33.152,96.782C34.129,98.746 37.551,100.219 39.506,100.219C41.461,100.219 48.792,99.728 49.281,100.219C49.667,100.606 49.443,107.731 49.332,110.709Z" style="fill:rgb(217,217,217);"/>
    </g>
</svg>
