<?xml version="1.0" encoding="UTF-8" standalone="no"?>
<!DOCTYPE svg PUBLIC "-//W3C//DTD SVG 1.1//EN" "http://www.w3.org/Graphics/SVG/1.1/DTD/svg11.dtd">
<svg width="100%" height="100%" viewBox="0 0 120 120" version="1.1" xmlns="http://www.w3.org/2000/svg" xmlns:xlink="http://www.w3.org/1999/xlink" xml:space="preserve" xmlns:serif="http://www.serif.com/" style="fill-rule:evenodd;clip-rule:evenodd;stroke-linejoin:round;stroke-miterlimit:2;">
    <g transform="matrix(1.09091,0,0,1.09091,-6.54545,-4.36364)">
        <path d="M98.903,98.84C89.034,108.232 75.685,114 61,114C46.315,114 32.966,108.232 23.097,98.84L49.482,72.455L61,54.602L72.518,72.455L98.903,98.84Z" style="fill:rgb(217,217,217);"/>
    </g>
    <g transform="matrix(1.09091,0,0,1.09091,-6.54545,-4.36364)">
        <path d="M15.924,90.506C9.671,81.581 6,70.716 6,59C6,28.645 30.645,4 61,4C91.355,4 116,28.645 116,59C116,70.716 112.329,81.581 106.076,90.506L79.429,64.393C79.429,64.393 80.86,60.837 80.581,56.33C80.097,48.537 75.961,37.325 61,37.325C46.039,37.325 41.903,48.537 41.419,56.33C41.14,60.837 42.571,64.393 42.571,64.393L15.924,90.506Z" style="fill:rgb(217,217,217);"/>
    </g>
</svg>
