<?xml version="1.0" encoding="UTF-8" standalone="no"?>
<!DOCTYPE svg PUBLIC "-//W3C//DTD SVG 1.1//EN" "http://www.w3.org/Graphics/SVG/1.1/DTD/svg11.dtd">
<svg width="100%" height="100%" viewBox="0 0 120 120" version="1.1" xmlns="http://www.w3.org/2000/svg" xmlns:xlink="http://www.w3.org/1999/xlink" xml:space="preserve" xmlns:serif="http://www.serif.com/" style="fill-rule:evenodd;clip-rule:evenodd;stroke-linejoin:round;stroke-miterlimit:2;">
    <g transform="matrix(1.47068,0,0,1.47068,-29.7493,-26.2775)">
        <path d="M29.389,87L29.389,46.091L44.091,46.091L44.091,87L29.389,87ZM36.74,41.83C34.752,41.83 33.047,41.173 31.627,39.859C30.206,38.545 29.496,36.965 29.496,35.118C29.496,33.271 30.206,31.691 31.627,30.377C33.047,29.063 34.752,28.406 36.74,28.406C38.747,28.406 40.451,29.063 41.854,30.377C43.274,31.691 43.984,33.271 43.984,35.118C43.984,36.965 43.274,38.545 41.854,39.859C40.451,41.173 38.747,41.83 36.74,41.83ZM66.283,63.989L66.283,87L51.582,87L51.582,46.091L65.538,46.091L65.538,53.868L65.964,53.868C66.852,51.276 68.414,49.243 70.651,47.769C72.906,46.295 75.534,45.558 78.535,45.558C81.429,45.558 83.942,46.224 86.072,47.556C88.221,48.87 89.881,50.681 91.053,52.989C92.242,55.297 92.828,57.934 92.81,60.899L92.81,87L78.109,87L78.109,63.989C78.126,61.965 77.612,60.375 76.564,59.221C75.534,58.067 74.096,57.49 72.249,57.49C71.042,57.49 69.986,57.756 69.08,58.289C68.192,58.804 67.509,59.55 67.029,60.526C66.55,61.485 66.301,62.639 66.283,63.989Z" style="fill:rgb(217,217,217);fill-rule:nonzero;"/>
    </g>
</svg>
