<?xml version="1.0" encoding="UTF-8" standalone="no"?>
<!DOCTYPE svg PUBLIC "-//W3C//DTD SVG 1.1//EN" "http://www.w3.org/Graphics/SVG/1.1/DTD/svg11.dtd">
<svg width="100%" height="100%" viewBox="0 0 50 50" version="1.1" xmlns="http://www.w3.org/2000/svg" xmlns:xlink="http://www.w3.org/1999/xlink" xml:space="preserve" xmlns:serif="http://www.serif.com/" style="fill-rule:evenodd;clip-rule:evenodd;stroke-linejoin:round;stroke-miterlimit:2;">
    <g id="Illustrator">
        <g transform="matrix(0.02,0,0,0.0205128,0,-0.00512821)">
            <path d="M442.708,0.25L2057.29,0.25C2302.08,0.25 2500,198.167 2500,442.958L2500,1995.04C2500,2239.83 2302.08,2437.75 2057.29,2437.75L442.708,2437.75C197.917,2437.75 0,2239.83 0,1995.04L0,442.958C0,198.167 197.917,0.25 442.708,0.25Z" style="fill:rgb(51,0,0);fill-rule:nonzero;"/>
        </g>
        <g transform="matrix(0.02,0,0,0.0205128,0,0.244872)">
            <path d="M1211.46,1462.75L823.958,1462.75L744.792,1707.54C742.708,1716.92 734.375,1723.17 725,1722.12L529.167,1722.12C517.708,1722.12 514.583,1715.88 517.708,1703.38L853.125,737.75C856.25,727.333 859.375,715.875 863.542,703.375C867.708,681.5 869.792,658.583 869.792,635.667C868.75,630.458 872.917,625.25 878.125,624.208L1147.92,624.208C1156.25,624.208 1160.42,627.333 1161.46,632.542L1541.67,1705.46C1544.79,1716.92 1541.67,1722.12 1531.25,1722.12L1313.54,1722.12C1306.25,1723.17 1298.96,1717.96 1296.88,1710.67L1211.46,1462.75ZM884.375,1251.29L1148.96,1251.29C1142.71,1229.42 1134.38,1203.38 1125,1176.29C1115.62,1148.17 1106.25,1117.96 1096.88,1086.71C1086.46,1054.42 1077.08,1023.17 1066.67,990.875C1056.25,958.583 1046.88,928.375 1038.54,898.167C1030.21,869 1022.92,841.917 1015.62,816.917L1013.54,816.917C1004.17,861.708 992.708,906.5 978.125,951.292C962.5,1001.29 946.875,1053.38 930.208,1105.46C915.625,1158.58 900,1207.54 884.375,1251.29ZM1768.75,802.333C1734.38,803.375 1701.04,789.833 1676.04,765.875C1652.08,739.833 1639.58,705.458 1640.62,670.042C1639.58,634.625 1653.12,601.292 1678.12,577.333C1703.12,553.375 1736.46,540.875 1770.83,540.875C1811.46,540.875 1842.71,553.375 1865.62,577.333C1888.54,602.333 1901.04,635.667 1900,670.042C1901.04,705.458 1888.54,739.833 1863.54,765.875C1839.58,790.875 1804.17,804.417 1768.75,802.333ZM1652.08,1706.5L1652.08,904.417C1652.08,894 1656.25,889.833 1665.62,889.833L1871.88,889.833C1881.25,889.833 1885.42,895.042 1885.42,904.417L1885.42,1706.5C1885.42,1717.96 1881.25,1723.17 1871.88,1723.17L1667.71,1723.17C1657.29,1723.17 1652.08,1716.92 1652.08,1706.5Z" style="fill:rgb(255,154,0);fill-rule:nonzero;"/>
        </g>
    </g>
</svg>
