<?xml version="1.0" encoding="UTF-8" standalone="no"?>
<!DOCTYPE svg PUBLIC "-//W3C//DTD SVG 1.1//EN" "http://www.w3.org/Graphics/SVG/1.1/DTD/svg11.dtd">
<svg width="100%" height="100%" viewBox="0 0 50 50" version="1.1" xmlns="http://www.w3.org/2000/svg" xmlns:xlink="http://www.w3.org/1999/xlink" xml:space="preserve" xmlns:serif="http://www.serif.com/" style="fill-rule:evenodd;clip-rule:evenodd;stroke-linejoin:round;stroke-miterlimit:2;">
    <g id="Figma">
        <g transform="matrix(0.02,0,0,0.02,8.16304,0)">
            <path d="M833.5,1250C833.5,1019.88 1020.05,833.333 1250.17,833.333C1480.28,833.333 1666.83,1019.88 1666.83,1250C1666.83,1480.12 1480.28,1666.67 1250.17,1666.67C1020.05,1666.67 833.5,1480.12 833.5,1250Z" style="fill:rgb(26,188,254);fill-rule:nonzero;"/>
        </g>
        <g transform="matrix(0.02,0,0,0.02,8.16304,0)">
            <path d="M0.167,2083.33C0.167,1853.22 186.713,1666.67 416.833,1666.67L833.5,1666.67L833.5,2083.33C833.5,2313.45 646.954,2500 416.833,2500C186.713,2500 0.167,2313.45 0.167,2083.33Z" style="fill:rgb(10,207,131);fill-rule:nonzero;"/>
        </g>
        <g transform="matrix(0.02,0,0,0.02,8.16304,0)">
            <path d="M833.5,0.006L833.5,833.333L1250.17,833.333C1480.29,833.333 1666.83,646.787 1666.83,416.667C1666.83,186.546 1480.29,0.006 1250.17,0.006L833.5,0.006Z" style="fill:rgb(255,114,98);fill-rule:nonzero;"/>
        </g>
        <g transform="matrix(0.02,0,0,0.02,8.16304,0)">
            <path d="M0.167,416.667C0.167,646.787 186.713,833.333 416.833,833.333L833.5,833.333L833.5,0L416.833,0C186.713,0 0.167,186.552 0.167,416.667Z" style="fill:rgb(242,78,30);fill-rule:nonzero;"/>
        </g>
        <g transform="matrix(0.02,0,0,0.02,8.16304,0)">
            <path d="M0.167,1250C0.167,1480.12 186.713,1666.67 416.833,1666.67L833.5,1666.67L833.5,833.333L416.833,833.333C186.713,833.333 0.167,1019.88 0.167,1250Z" style="fill:rgb(162,89,255);fill-rule:nonzero;"/>
        </g>
    </g>
</svg>
