<?xml version="1.0" encoding="UTF-8" standalone="no"?>
<!DOCTYPE svg PUBLIC "-//W3C//DTD SVG 1.1//EN" "http://www.w3.org/Graphics/SVG/1.1/DTD/svg11.dtd">
<svg width="100%" height="100%" viewBox="0 0 50 50" version="1.1" xmlns="http://www.w3.org/2000/svg" xmlns:xlink="http://www.w3.org/1999/xlink" xml:space="preserve" xmlns:serif="http://www.serif.com/" style="fill-rule:evenodd;clip-rule:evenodd;stroke-linejoin:round;stroke-miterlimit:2;">
    <g id="Revit" transform="matrix(0.233547,0,0,0.256102,-0.0459872,0.00371949)">
        <g transform="matrix(1,0,0,1,-276.97,-286.38)">
            <path d="M279.65,305.62C290.37,299.27 300.96,292.68 311.72,286.42C311.82,339.63 311.72,392.84 311.72,446.06C306.46,449.26 301.16,452.39 295.91,455.61C289.57,459.37 283.31,463.29 276.91,466.97L276.91,307.69C277.693,306.842 278.621,306.141 279.65,305.62Z" style="fill:rgb(103,154,231);fill-rule:nonzero;"/>
        </g>
        <g transform="matrix(1,0,0,1,-276.97,-286.38)">
            <path d="M311.72,286.42C362.313,286.373 412.91,286.373 463.51,286.42C469.51,286.12 475.26,291.42 475.23,297.42L475.23,446.03L311.78,446.03C311.72,392.84 311.82,339.63 311.72,286.42ZM361.58,410.64C369.02,410.71 376.47,410.64 383.92,410.64L383.92,378.74C387.05,378.74 390.18,378.74 393.31,378.69C396.65,385.06 399.71,391.59 402.95,398.02C405.39,403.6 408.95,409.43 415.1,411.44C420.529,413.148 426.393,412.875 431.64,410.67L431.64,397.36C429.81,397.13 427.83,397.16 426.23,396.11C424.925,395.205 423.889,393.965 423.23,392.52C419.97,386.34 416.697,380.17 413.41,374.01C418.41,371.33 423.22,367.57 425.61,362.24C428.02,357.24 427.32,351.47 427.38,346.06C427.439,340.042 424.953,334.271 420.54,330.18C414.26,324.49 405.54,322.37 397.29,322.09L361.64,322.09C361.55,351.6 361.62,381.13 361.58,410.64Z" style="fill:rgb(24,107,255);fill-rule:nonzero;"/>
        </g>
        <rect x="73.081" y="28.77" width="95.088" height="107.606" style="fill:rgb(24,107,255);"/>
        <g transform="matrix(1,0,0,1,-276.97,-286.38)">
            <path d="M383.92,337.44C388.37,337.61 392.92,337.05 397.28,337.8C400.94,338.53 404.28,341.33 404.84,345.13C405.092,348.28 405.152,351.443 405.02,354.6C404.927,358.525 402.384,361.997 398.67,363.27C393.92,364.82 388.84,363.94 383.93,364.18C383.917,355.273 383.913,346.36 383.92,337.44Z" style="fill:rgb(24,107,255);fill-rule:nonzero;"/>
        </g>
        <g transform="matrix(1,0,0,1,-276.97,-286.38)">
            <path d="M361.58,410.64L361.58,322.09L397.23,322.09C405.51,322.38 414.23,324.5 420.48,330.18C424.893,334.271 427.379,340.042 427.32,346.06C427.27,351.47 427.96,357.2 425.55,362.24C423.16,367.57 418.39,371.33 413.35,374.01C416.63,380.17 419.903,386.34 423.17,392.52C423.829,393.965 424.865,395.205 426.17,396.11C427.77,397.11 429.76,397.11 431.58,397.36L431.58,410.67C426.333,412.875 420.469,413.148 415.04,411.44C408.94,409.44 405.34,403.59 402.89,398.02C399.65,391.59 396.59,385.02 393.25,378.69C390.12,378.79 386.99,378.69 383.86,378.74L383.86,410.64C376.47,410.65 369,410.71 361.58,410.64ZM383.92,337.44L383.92,364.18C388.82,363.95 393.92,364.82 398.66,363.27C402.374,361.997 404.917,358.525 405.01,354.6C405.142,351.443 405.082,348.28 404.83,345.13C404.24,341.33 400.93,338.53 397.27,337.8C392.88,337 388.37,337.62 383.92,337.44Z" style="fill:white;fill-rule:nonzero;"/>
        </g>
        <g transform="matrix(1,0,0,1,-276.97,-286.38)">
            <path d="M475.23,322.26L491,322.26L491,481.62L306.66,481.62C302.991,481.24 299.682,479.225 297.66,476.14C296.392,474.16 295.786,471.827 295.93,469.48L295.93,455.61C301.18,452.4 306.48,449.26 311.74,446.06L475.19,446.06C475.243,404.793 475.257,363.527 475.23,322.26Z" style="fill:rgb(12,61,145);fill-rule:nonzero;"/>
        </g>
    </g>
</svg>
